<svg width="64" height="64" viewBox="0 0 64 64" fill="none" xmlns="http://www.w3.org/2000/svg">
<path fill-rule="evenodd" clip-rule="evenodd" d="M0 32C0 14.3269 14.3269 0 32 0C49.6731 0 64 14.3269 64 32C64 49.6731 49.6731 64 32 64C14.3269 64 0 49.6731 0 32ZM22 19C22 13.4772 26.4772 9 32 9C37.5228 9 42 13.4772 42 19C42 24.5228 37.5228 29 32 29C26.4772 29 22 24.5228 22 19ZM22 32C16.4772 32 12 36.4772 12 42C12 47.5228 16.4772 52 22 52H42C47.5228 52 52 47.5228 52 42C52 36.4772 47.5228 32 42 32H22Z" fill="white"/>
</svg>
